<svg width="542" height="542" viewBox="0 0 542 542" fill="none" xmlns="http://www.w3.org/2000/svg">
<rect width="542" height="542" rx="70" fill="#4CAF50"/>
<path d="M270.75 16C411.445 16 525.5 130.055 525.5 270.75C525.5 411.445 411.445 525.5 270.75 525.5C130.055 525.5 16 411.445 16 270.75C16 130.055 130.055 16 270.75 16Z" fill="white" stroke="#4CAF50" stroke-width="8"/>
<path d="M387.223 295.195C336.053 426.032 169.072 504.033 169.072 504.033C169.072 504.033 85.0554 369.906 136.225 239.069C187.395 108.232 354.376 30.231 354.376 30.231C354.376 30.231 438.393 164.358 387.223 295.195Z" fill="#4CAF50"/>
<path d="M120.25 283.186C120.25 283.186 172.429 283.186 184.073 283.186L224.824 192.75L280.13 352.75L300.505 192.75L310.693 236.229H406.75" stroke="white" stroke-width="12"/>
</svg>
