<svg width="3267" height="616" viewBox="0 0 3267 616" fill="none" xmlns="http://www.w3.org/2000/svg">
<path d="M295 53C435.695 53 549.75 167.055 549.75 307.75C549.75 448.445 435.695 562.5 295 562.5C154.305 562.5 40.25 448.445 40.25 307.75C40.25 167.055 154.305 53 295 53Z" fill="white" stroke="#1FA604" stroke-width="10"/>
<path d="M407.473 332.195C356.303 463.032 189.322 541.033 189.322 541.033C189.322 541.033 105.305 406.906 156.475 276.069C207.645 145.232 374.626 67.2307 374.626 67.2307C374.626 67.2307 458.643 201.358 407.473 332.195Z" fill="#1FA604"/>
<path d="M140.5 320.186C140.5 320.186 192.679 320.186 204.323 320.186L245.074 229.75L300.38 389.75L320.755 229.75L330.943 273.229H427" stroke="white" stroke-width="10"/>
<path d="M839.349 408.564C839.349 402.447 838.45 396.96 836.651 392.103C834.852 387.065 831.523 382.388 826.666 378.07C821.808 373.752 814.792 369.435 805.617 365.117C796.622 360.619 784.748 355.942 769.995 351.084C752.724 345.327 736.083 338.85 720.071 331.654C704.06 324.278 689.757 315.732 677.164 306.017C664.57 296.123 654.585 284.609 647.209 271.475C639.833 258.162 636.145 242.69 636.145 225.06C636.145 208.148 639.923 192.946 647.479 179.453C655.035 165.78 665.56 154.176 679.053 144.641C692.725 134.926 708.737 127.55 727.088 122.513C745.438 117.296 765.498 114.687 787.266 114.687C816.051 114.687 841.418 119.724 863.367 129.799C885.495 139.694 902.766 153.817 915.18 172.167C927.773 190.338 934.07 211.836 934.07 236.664H839.889C839.889 226.769 837.82 218.043 833.682 210.487C829.724 202.931 823.697 196.994 815.602 192.676C807.506 188.359 797.341 186.2 785.108 186.2C773.234 186.2 763.249 187.999 755.153 191.597C747.057 195.195 740.94 200.053 736.803 206.169C732.665 212.106 730.596 218.673 730.596 225.869C730.596 231.806 732.215 237.203 735.453 242.061C738.872 246.738 743.639 251.146 749.756 255.284C756.053 259.422 763.609 263.38 772.424 267.158C781.419 270.936 791.494 274.624 802.648 278.222C823.518 284.878 842.048 292.345 858.24 300.62C874.611 308.716 888.374 317.981 899.528 328.416C910.862 338.671 919.408 350.364 925.165 363.498C931.102 376.631 934.07 391.473 934.07 408.025C934.07 425.655 930.652 441.307 923.815 454.98C916.979 468.653 907.174 480.257 894.401 489.792C881.627 499.147 866.335 506.254 848.525 511.111C830.714 515.968 810.834 518.397 788.886 518.397C768.736 518.397 748.856 515.879 729.247 510.841C709.817 505.624 692.186 497.708 676.354 487.093C660.522 476.299 647.839 462.536 638.304 445.805C628.949 428.894 624.271 408.834 624.271 385.626H719.262C719.262 397.14 720.791 406.855 723.849 414.771C726.908 422.687 731.405 429.074 737.342 433.931C743.279 438.609 750.565 442.027 759.201 444.186C767.836 446.165 777.731 447.154 788.886 447.154C800.939 447.154 810.654 445.445 818.03 442.027C825.407 438.429 830.804 433.751 834.222 427.994C837.64 422.057 839.349 415.581 839.349 408.564ZM1315.38 308.716V324.638C1315.38 354.682 1311.15 381.668 1302.7 405.596C1294.42 429.343 1282.64 449.673 1267.35 466.584C1252.05 483.315 1233.97 496.179 1213.11 505.174C1192.24 513.989 1169.21 518.397 1144.02 518.397C1118.65 518.397 1095.45 513.989 1074.4 505.174C1053.53 496.179 1035.36 483.315 1019.89 466.584C1004.59 449.673 992.72 429.343 984.264 405.596C975.988 381.668 971.851 354.682 971.851 324.638V308.716C971.851 278.672 975.988 251.686 984.264 227.758C992.72 203.831 1004.5 183.501 1019.62 166.77C1034.91 149.859 1052.99 136.995 1073.86 128.18C1094.91 119.185 1118.11 114.687 1143.48 114.687C1168.67 114.687 1191.7 119.185 1212.57 128.18C1233.61 136.995 1251.79 149.859 1267.08 166.77C1282.37 183.501 1294.24 203.831 1302.7 227.758C1311.15 251.686 1315.38 278.672 1315.38 308.716ZM1219.31 324.638V308.176C1219.31 288.746 1217.6 271.655 1214.18 256.903C1210.95 241.971 1206.09 229.467 1199.61 219.392C1193.14 209.318 1185.13 201.762 1175.59 196.724C1166.24 191.507 1155.54 188.898 1143.48 188.898C1130.89 188.898 1119.91 191.507 1110.56 196.724C1101.2 201.762 1093.38 209.318 1087.08 219.392C1080.78 229.467 1076.02 241.971 1072.78 256.903C1069.72 271.655 1068.19 288.746 1068.19 308.176V324.638C1068.19 343.888 1069.72 360.979 1072.78 375.911C1076.02 390.664 1080.78 403.167 1087.08 413.422C1093.56 423.676 1101.47 431.412 1110.83 436.63C1120.36 441.847 1131.43 444.456 1144.02 444.456C1156.07 444.456 1166.78 441.847 1176.13 436.63C1185.49 431.412 1193.32 423.676 1199.61 413.422C1206.09 403.167 1210.95 390.664 1214.18 375.911C1217.6 360.979 1219.31 343.888 1219.31 324.638ZM1465.15 120.084V513H1370.7V120.084H1465.15ZM1791.41 440.138V513H1592.8V440.138H1791.41ZM1626.53 120.084V513H1531.81V120.084H1626.53ZM2037.53 379.959H2131.98C2130.72 407.305 2123.34 431.412 2109.85 452.282C2096.36 473.151 2077.65 489.432 2053.72 501.126C2029.97 512.64 2001.91 518.397 1969.52 518.397C1943.26 518.397 1919.78 513.989 1899.09 505.174C1878.58 496.359 1861.13 483.675 1846.74 467.124C1832.52 450.572 1821.64 430.513 1814.08 406.945C1806.71 383.377 1803.02 356.841 1803.02 327.336V306.017C1803.02 276.513 1806.89 249.977 1814.62 226.409C1822.54 202.661 1833.69 182.512 1848.09 165.96C1862.66 149.229 1880.11 136.456 1900.44 127.64C1920.77 118.825 1943.35 114.417 1968.17 114.417C2002.36 114.417 2031.23 120.534 2054.8 132.767C2078.37 145.001 2096.63 161.822 2109.58 183.231C2122.53 204.46 2130.18 228.658 2132.52 255.824H2038.07C2037.71 241.071 2035.19 228.748 2030.51 218.853C2025.83 208.778 2018.46 201.222 2008.38 196.185C1998.31 191.147 1984.9 188.628 1968.17 188.628C1956.48 188.628 1946.31 190.787 1937.68 195.105C1929.04 199.423 1921.85 206.259 1916.09 215.614C1910.33 224.97 1906.02 237.113 1903.14 252.046C1900.44 266.798 1899.09 284.609 1899.09 305.478V327.336C1899.09 348.206 1900.35 366.016 1902.87 380.769C1905.39 395.521 1909.43 407.575 1915.01 416.93C1920.59 426.285 1927.78 433.211 1936.6 437.709C1945.59 442.027 1956.57 444.186 1969.52 444.186C1983.91 444.186 1996.06 441.937 2005.95 437.439C2015.85 432.762 2023.49 425.745 2028.89 416.39C2034.29 406.855 2037.17 394.711 2037.53 379.959ZM2343.28 202.661L2247.48 513H2145.74L2290.12 120.084H2354.61L2343.28 202.661ZM2422.62 513L2326.55 202.661L2314.13 120.084H2379.44L2524.62 513H2422.62ZM2418.84 366.466V439.598H2217.25V366.466H2418.84ZM2553.5 120.084H2708.13C2738.35 120.084 2764.62 124.582 2786.93 133.577C2809.24 142.572 2826.42 155.885 2838.47 173.516C2850.7 191.147 2856.82 212.916 2856.82 238.822C2856.82 261.311 2853.31 280.111 2846.3 295.223C2839.28 310.335 2829.48 322.839 2816.88 332.734C2804.47 342.449 2789.99 350.454 2773.43 356.751L2742.4 374.292H2612.6L2612.06 301.16H2708.13C2720.18 301.16 2730.17 299.001 2738.08 294.683C2746 290.366 2751.94 284.249 2755.89 276.333C2760.03 268.237 2762.1 258.612 2762.1 247.458C2762.1 236.124 2760.03 226.409 2755.89 218.313C2751.76 210.217 2745.64 204.01 2737.54 199.693C2729.63 195.375 2719.82 193.216 2708.13 193.216H2648.22V513H2553.5V120.084ZM2768.58 513L2681.68 339.21L2782.07 338.671L2870.04 508.952V513H2768.58ZM3184.43 440.138V513H2975.02V440.138H3184.43ZM3008.75 120.084V513H2914.03V120.084H3008.75ZM3157.45 276.063V346.496H2975.02V276.063H3157.45ZM3185.24 120.084V193.216H2975.02V120.084H3185.24Z" fill="white"/>
</svg>
