<svg width="3609" height="616" viewBox="0 0 3609 616" fill="none" xmlns="http://www.w3.org/2000/svg">
<path d="M1017.35 408.564C1017.35 402.447 1016.45 396.96 1014.65 392.103C1012.85 387.065 1009.52 382.388 1004.67 378.07C999.808 373.752 992.792 369.435 983.617 365.117C974.622 360.619 962.748 355.942 947.995 351.084C930.724 345.327 914.083 338.85 898.071 331.654C882.06 324.278 867.757 315.732 855.164 306.017C842.57 296.123 832.585 284.609 825.209 271.475C817.833 258.162 814.145 242.69 814.145 225.06C814.145 208.148 817.923 192.946 825.479 179.453C833.035 165.78 843.56 154.176 857.053 144.641C870.725 134.926 886.737 127.55 905.088 122.513C923.438 117.296 943.498 114.687 965.266 114.687C994.051 114.687 1019.42 119.724 1041.37 129.799C1063.5 139.694 1080.77 153.817 1093.18 172.167C1105.77 190.338 1112.07 211.836 1112.07 236.664H1017.89C1017.89 226.769 1015.82 218.043 1011.68 210.487C1007.72 202.931 1001.7 196.994 993.602 192.676C985.506 188.359 975.341 186.2 963.108 186.2C951.234 186.2 941.249 187.999 933.153 191.597C925.057 195.195 918.94 200.053 914.803 206.169C910.665 212.106 908.596 218.673 908.596 225.869C908.596 231.806 910.215 237.203 913.453 242.061C916.872 246.738 921.639 251.146 927.756 255.284C934.053 259.422 941.609 263.38 950.424 267.158C959.419 270.936 969.494 274.624 980.648 278.222C1001.52 284.878 1020.05 292.345 1036.24 300.62C1052.61 308.716 1066.37 317.981 1077.53 328.416C1088.86 338.671 1097.41 350.364 1103.16 363.498C1109.1 376.631 1112.07 391.473 1112.07 408.025C1112.07 425.655 1108.65 441.307 1101.82 454.98C1094.98 468.653 1085.17 480.257 1072.4 489.792C1059.63 499.147 1044.34 506.254 1026.52 511.111C1008.71 515.968 988.834 518.397 966.886 518.397C946.736 518.397 926.856 515.879 907.247 510.841C887.817 505.624 870.186 497.708 854.354 487.093C838.522 476.299 825.839 462.536 816.304 445.805C806.949 428.894 802.271 408.834 802.271 385.626H897.262C897.262 397.14 898.791 406.855 901.849 414.771C904.908 422.687 909.405 429.074 915.342 433.931C921.279 438.609 928.565 442.027 937.201 444.186C945.836 446.165 955.731 447.154 966.886 447.154C978.939 447.154 988.654 445.445 996.03 442.027C1003.41 438.429 1008.8 433.751 1012.22 427.994C1015.64 422.057 1017.35 415.581 1017.35 408.564ZM1493.38 308.716V324.638C1493.38 354.682 1489.15 381.668 1480.7 405.596C1472.42 429.343 1460.64 449.673 1445.35 466.584C1430.05 483.315 1411.97 496.179 1391.11 505.174C1370.24 513.989 1347.21 518.397 1322.02 518.397C1296.65 518.397 1273.45 513.989 1252.4 505.174C1231.53 496.179 1213.36 483.315 1197.89 466.584C1182.59 449.673 1170.72 429.343 1162.26 405.596C1153.99 381.668 1149.85 354.682 1149.85 324.638V308.716C1149.85 278.672 1153.99 251.686 1162.26 227.758C1170.72 203.831 1182.5 183.501 1197.62 166.77C1212.91 149.859 1230.99 136.995 1251.86 128.18C1272.91 119.185 1296.11 114.687 1321.48 114.687C1346.67 114.687 1369.7 119.185 1390.57 128.18C1411.61 136.995 1429.79 149.859 1445.08 166.77C1460.37 183.501 1472.24 203.831 1480.7 227.758C1489.15 251.686 1493.38 278.672 1493.38 308.716ZM1397.31 324.638V308.176C1397.31 288.746 1395.6 271.655 1392.18 256.903C1388.95 241.971 1384.09 229.467 1377.61 219.392C1371.14 209.318 1363.13 201.762 1353.59 196.724C1344.24 191.507 1333.54 188.898 1321.48 188.898C1308.89 188.898 1297.91 191.507 1288.56 196.724C1279.2 201.762 1271.38 209.318 1265.08 219.392C1258.78 229.467 1254.02 241.971 1250.78 256.903C1247.72 271.655 1246.19 288.746 1246.19 308.176V324.638C1246.19 343.888 1247.72 360.979 1250.78 375.911C1254.02 390.664 1258.78 403.167 1265.08 413.422C1271.56 423.676 1279.47 431.412 1288.83 436.63C1298.36 441.847 1309.43 444.456 1322.02 444.456C1334.07 444.456 1344.78 441.847 1354.13 436.63C1363.49 431.412 1371.32 423.676 1377.61 413.422C1384.09 403.167 1388.95 390.664 1392.18 375.911C1395.6 360.979 1397.31 343.888 1397.31 324.638ZM1643.15 120.084V513H1548.7V120.084H1643.15ZM1969.41 440.138V513H1770.8V440.138H1969.41ZM1804.53 120.084V513H1709.81V120.084H1804.53ZM2215.53 379.959H2309.98C2308.72 407.305 2301.34 431.412 2287.85 452.282C2274.36 473.151 2255.65 489.432 2231.72 501.126C2207.97 512.64 2179.91 518.397 2147.52 518.397C2121.26 518.397 2097.78 513.989 2077.09 505.174C2056.58 496.359 2039.13 483.675 2024.74 467.124C2010.52 450.572 1999.64 430.513 1992.08 406.945C1984.71 383.377 1981.02 356.841 1981.02 327.336V306.017C1981.02 276.513 1984.89 249.977 1992.62 226.409C2000.54 202.661 2011.69 182.512 2026.09 165.96C2040.66 149.229 2058.11 136.456 2078.44 127.64C2098.77 118.825 2121.35 114.417 2146.17 114.417C2180.36 114.417 2209.23 120.534 2232.8 132.767C2256.37 145.001 2274.63 161.822 2287.58 183.231C2300.53 204.46 2308.18 228.658 2310.52 255.824H2216.07C2215.71 241.071 2213.19 228.748 2208.51 218.853C2203.83 208.778 2196.46 201.222 2186.38 196.185C2176.31 191.147 2162.9 188.628 2146.17 188.628C2134.48 188.628 2124.31 190.787 2115.68 195.105C2107.04 199.423 2099.85 206.259 2094.09 215.614C2088.33 224.97 2084.02 237.113 2081.14 252.046C2078.44 266.798 2077.09 284.609 2077.09 305.478V327.336C2077.09 348.206 2078.35 366.016 2080.87 380.769C2083.39 395.521 2087.43 407.575 2093.01 416.93C2098.59 426.285 2105.78 433.211 2114.6 437.709C2123.59 442.027 2134.57 444.186 2147.52 444.186C2161.91 444.186 2174.06 441.937 2183.95 437.439C2193.85 432.762 2201.49 425.745 2206.89 416.39C2212.29 406.855 2215.17 394.711 2215.53 379.959ZM2521.28 202.661L2425.48 513H2323.74L2468.12 120.084H2532.61L2521.28 202.661ZM2600.62 513L2504.55 202.661L2492.13 120.084H2557.44L2702.62 513H2600.62ZM2596.84 366.466V439.598H2395.25V366.466H2596.84ZM2731.5 120.084H2886.13C2916.35 120.084 2942.62 124.582 2964.93 133.577C2987.24 142.572 3004.42 155.885 3016.47 173.516C3028.7 191.147 3034.82 212.916 3034.82 238.822C3034.82 261.311 3031.31 280.111 3024.3 295.223C3017.28 310.335 3007.48 322.839 2994.88 332.734C2982.47 342.449 2967.99 350.454 2951.43 356.751L2920.4 374.292H2790.6L2790.06 301.16H2886.13C2898.18 301.16 2908.17 299.001 2916.08 294.683C2924 290.366 2929.94 284.249 2933.89 276.333C2938.03 268.237 2940.1 258.612 2940.1 247.458C2940.1 236.124 2938.03 226.409 2933.89 218.313C2929.76 210.217 2923.64 204.01 2915.54 199.693C2907.63 195.375 2897.82 193.216 2886.13 193.216H2826.22V513H2731.5V120.084ZM2946.58 513L2859.68 339.21L2960.07 338.671L3048.04 508.952V513H2946.58ZM3362.43 440.138V513H3153.02V440.138H3362.43ZM3186.75 120.084V513H3092.03V120.084H3186.75ZM3335.45 276.063V346.496H3153.02V276.063H3335.45ZM3363.24 120.084V193.216H3153.02V120.084H3363.24Z" fill="#4CAF50"/>
<rect x="32" y="37" width="542" height="542" rx="70" fill="#4CAF50"/>
<path d="M302.75 53C443.445 53 557.5 167.055 557.5 307.75C557.5 448.445 443.445 562.5 302.75 562.5C162.055 562.5 48 448.445 48 307.75C48 167.055 162.055 53 302.75 53Z" fill="white" stroke="#4CAF50" stroke-width="8"/>
<path d="M419.223 332.195C368.053 463.032 201.072 541.033 201.072 541.033C201.072 541.033 117.055 406.906 168.225 276.069C219.395 145.232 386.376 67.231 386.376 67.231C386.376 67.231 470.393 201.358 419.223 332.195Z" fill="#4CAF50"/>
<path d="M152.25 320.186C152.25 320.186 204.429 320.186 216.073 320.186L256.824 229.75L312.13 389.75L332.505 229.75L342.693 273.229H438.75" stroke="white" stroke-width="12"/>
</svg>
